PathFileType	4	(X/Y/Z)	/home/filipkon/dev/OpenSimRT/data/gait1992/experimental_data/task_resampled.trc
DataRate	CameraRate	NumFrames	NumMarkers	Units	OrigDataRate	OrigDataStartFrame	OrigNumFrames
100	100	5	41	mm	100	125	251
Frame#	Time	R.ASIS			L.ASIS			V.Sacral			R.Thigh.Upper			R.Thigh.Front			R.Thigh.Rear			L.Thigh.Upper			L.Thigh.Front			L.Thigh.Rear			R.Shank.Upper			R.Shank.Front			R.Shank.Rear			L.Shank.Upper			L.Shank.Front			L.Shank.Rear			R.Heel			R.Midfoot.Sup			R.Midfoot.Lat			R.Toe.Tip			L.Heel			L.Midfoot.Sup			L.Midfoot.Lat			L.Toe.Tip			Sternum			R.Acromium			L.Acromium			R.Bicep			L.Bicep			R.Elbow			L.Elbow			R.Wrist.Med			R.Wrist.Lat			L.Wrist.Med			L.Wrist.Lat			R.Toe.Lat			R.Toe.Med			L.Toe.Lat			L.Toe.Med			R.Temple			L.Temple			Top.Head			
		X1	Y1	Z1	X2	Y2	Z2	X3	Y3	Z3	X4	Y4	Z4	X5	Y5	Z5	X6	Y6	Z6	X7	Y7	Z7	X8	Y8	Z8	X9	Y9	Z9	X10	Y10	Z10	X11	Y11	Z11	X12	Y12	Z12	X13	Y13	Z13	X14	Y14	Z14	X15	Y15	Z15	X16	Y16	Z16	X17	Y17	Z17	X18	Y18	Z18	X19	Y19	Z19	X20	Y20	Z20	X21	Y21	Z21	X22	Y22	Z22	X23	Y23	Z23	X24	Y24	Z24	X25	Y25	Z25	X26	Y26	Z26	X27	Y27	Z27	X28	Y28	Z28	X29	Y29	Z29	X30	Y30	Z30	X31	Y31	Z31	X32	Y32	Z32	X33	Y33	Z33	X34	Y34	Z34	X35	Y35	Z35	X36	Y36	Z36	X37	Y37	Z37	X38	Y38	Z38	X39	Y39	Z39	X40	Y40	Z40	X41	Y41	Z41	

126	1.25	588.90717	1051.90112	176.09511	611.34204	1044.15649	-86.37766000000001	401.39194	1052.09277	36.13618	481.83603	739.72626	212.43568	535.63422	664.3266599999999	127.92893	444.13943	625.48486	201.89241	629.5495	743.99292	-139.54884	720.69708	735.76355	-67.12119	665.83374	642.14905	-128.59685	321.8317	474.89267	185.39595	384.59	413.24869	135.52921	304.59244	389.39871	188.93301	723.84485	444.55359	-120.93961	788.1652800000001	414.8252	-70.33574	719.1965300000001	397.06677	-127.96164	125.30895	110.85136	93.72926	269.94714	89.09666	68.43434999999999	252.55435	72.93040000000001	175.82886	397.90057	43.57354	118.86555	788.92682	65.94314	-38.27882	942.39545	128.5843	-14.68241	929.93909	116.20587	-110.95637	1055.50928	151.62457	-44.74218	630.7608	1352.5874	25.66518	541.36682	1446.78259	236.77754	561.1013799999999	1466.69617	-180.34334	572.92871	1247.15051	286.37149	541.28284	1231.20703	-214.23495	548.97815	1141.13977	323.7467	474.46347	1144.5498	-249.07195	752.73077	970.03516	276.38257	729.37238	942.05615	332.87167	569.22961	910.14325	-209.23543	521.03668	902.47571	-266.48422	327.16116	35.49563	196.86848	346.50333	39.58302	86.43159	998.93854	118.70323	-119.93378	1010.32526	131.37224	-18.07142	706.25031	1574.83435	111.83164	717.32501	1578.33398	-26.65863	716.99762	1751.47339	51.17855	
127	1.26	590.7976052941176	1050.883702352941	174.8290335294118	612.7840517647059	1043.317942941177	-86.98895411764707	402.4233223529412	1051.012664117647	34.45281529411763	481.9961417647059	739.5105894117647	212.1508035294118	536.4709023529413	663.2913247058823	127.9086594117647	443.4885829411764	625.2878247058824	201.8616923529412	631.7794705882353	743.2930964705882	-139.3468576470588	724.4195094117648	736.7115676470588	-67.72041941176471	669.8504282352942	641.619944117647	-127.6332323529412	321.0129823529412	475.2402464705882	185.6842264705882	381.4298294117647	412.3549194117647	136.0112394117647	301.8672341176471	390.2972041176471	189.4381570588235	727.1025852941177	443.5751429411765	-119.9693747058823	790.1652976470589	412.5185176470588	-68.98033411764705	720.8198888235295	396.5399641176471	-127.0303164705882	116.5757558823529	115.5862188235294	94.18526	260.4348752941175	90.46403647058824	68.91627352941177	242.6805852941176	74.10066470588237	176.2337541176471	386.6424758823529	43.52829882352941	118.5307676470588	781.4752141176471	66.10447529411765	-37.64073176470588	936.3253205882353	122.7653588235294	-13.16987470588234	924.513778235294	111.2564347058823	-109.378464117647	1050.066668235294	142.7237229411764	-41.98073882352939	631.0917176470588	1351.871494117647	24.01956235294116	541.2954435294117	1446.139207647059	234.4393282352941	561.2090505882353	1464.768822941176	-182.7907870588236	572.1335276470588	1246.963957058824	284.3641723529412	542.99814	1229.084300588235	-216.2787264705883	548.0412264705883	1140.924352352941	322.0342529411764	476.9725347058824	1142.306364705882	-251.2016441176471	750.1264405882353	967.7878776470588	276.6604052941177	726.6457211764706	940.6255205882353	332.92077	572.2272982352941	908.0566735294118	-210.8151535294118	523.9238623529412	900.064104117647	-268.0286964705882	317.3939188235294	35.34161235294118	197.3657388235294	336.0437535294117	39.15679647058823	86.39514294117647	992.9269694117647	111.49233	-117.980474117647	1004.422765882353	123.5656694117647	-15.99634352941175	706.2348688235294	1574.243602941177	109.3806458823529	716.90681	1577.153703529412	-29.12107705882354	716.88632	1750.629095882353	48.49356764705881	
128	1.27	592.22546375	1050.0923175	173.708298125	613.982011875	1042.31595125	-87.66680125000001	403.573729375	1050.009695625	32.73319437499998	482.77719	739.3680537499999	212.38482625	537.3021693750001	662.321263125	128.154496875	443.3460025	625.00014375	201.764224375	633.9900737500001	742.65640375	-139.1622325	728.180834375	737.59156625	-68.77549562500003	673.2976225	641.189466875	-126.427595	320.234974375	475.693555625	185.779844375	378.973916875	411.6379675	136.54952125	299.2824562499999	391.362318125	189.95082	729.7827181250001	442.4878775	-118.7706475	791.6196118749999	410.128135625	-67.50980499999997	722.309746875	396.09370625	-126.124966875	107.9057193749999	120.7316512500001	94.653801875	250.8916212499999	91.96520500000001	69.424695	232.7351043749999	75.41430062500001	176.6567175	375.1739262499999	43.47069875	118.1845875	773.5758862499999	66.41431875000001	-37.106756875	929.87833625	116.8306618749999	-11.74079499999999	918.6649356249999	106.1954099999999	-107.904631875	1044.200908125	133.4957343749999	-39.37320437499998	631.640865	1351.048551875	22.19202999999997	541.2175462500001	1445.584149375	231.995938125	561.57978125	1462.95200625	-185.41130125	571.23949375	1246.7984425	282.3631731249999	544.797685625	1226.947151875	-218.369180625	547.00286125	1140.80919625	320.24432625	479.440313125	1139.990285625	-253.239054375	747.2821275	965.449675	276.7704775	723.7007062499999	939.089275625	333.061289375	575.1660775	906.04504875	-212.392816875	526.935615625	897.7761262499999	-269.639256875	307.0720968749999	35.10160124999999	197.838981875	325.4311062499999	38.70977875	86.36592874999999	986.35236875	104.0097162499999	-116.175085	998.05435125	115.4544906249999	-14.07514499999998	706.109184375	1573.720353125	106.853901875	716.624073125	1576.232730625	-31.64037687500003	716.721595625	1749.911655	45.81159124999997	
129	1.28	592.57397625	1049.8283425	172.926691875	614.610518125	1040.93258875	-88.49993875000001	405.001860625	1049.186714375	30.92897562499998	485.00709	739.39616625	213.82961375	538.120800625	661.503506875	129.021253125	444.3893775	624.5009562499999	201.511005625	636.1554862500001	742.1670162500001	-139.0181075	732.032915625	738.3128537499999	-70.89421437500003	675.4159975	640.989123125	-124.657245	319.551955625	476.393574375	185.425925625	378.161273125	411.3335925	137.21905875	297.02534375	392.816211875	190.48102	731.115111875	441.1467025	-117.0387725	791.800618125	407.542454375	-65.77065499999998	723.488103125	395.83539375	-125.280223125	99.38305062499991	126.8350887500001	95.15160812500001	241.2760587499999	93.77855500000001	69.99494500000002	222.6222856249999	77.06246937500002	177.1218425	363.2143137499999	43.38426125	117.8118125	764.63187375	67.07068125000001	-36.81571312499999	922.55202375	110.6258681249999	-10.50644499999999	911.8278543749999	100.8740099999999	-106.673638125	1037.347801875	123.5044156249999	-37.12478562499997	632.699215	1349.975858125	19.94002999999998	541.12443375	1445.235180625	229.307131875	562.56431875	1461.39309375	-188.43563875	570.1148062499999	1246.6820175	280.376916875	546.793804375	1224.776358125	-220.568549375	545.72779875	1140.92798375	318.2736137499999	481.811756875	1137.504704375	-255.061135625	743.8778525	962.899325	276.4891025	720.24619375	937.306594375	333.415120625	577.9674025	904.20831125	-213.965673125	530.238034375	895.7766137499999	-271.404013125	295.4562531249999	34.66093874999999	198.256188125	314.4612937499999	38.21424124999999	86.35359125000001	978.4640312499999	95.89310374999991	-114.714835	990.5987887499999	106.6325593749999	-12.51299499999998	705.726265625	1573.354596875	104.150408125	716.657416875	1575.916799375	-34.29233312500003	716.4322143750001	1749.490205	43.13662874999997	
130	1.29	593.7192735294118	1049.565231176471	171.9329570588235	616.212575882353	1040.399506470588	-89.19969176470589	406.5474341176471	1048.586208823529	29.25424117647058	485.8769517647059	738.9426205882353	214.0009452941176	539.4436817647058	660.7731541176471	129.3893311764706	445.76009	624.1652223529411	202.06161	638.1560152941177	741.943974117647	-139.0848152941176	735.0255705882353	738.6679923529412	-72.74612529411766	677.233954117647	640.7225570588236	-123.7558358823529	319.77755	476.9772441176471	185.8928111764706	377.3120870588235	410.7206605882353	138.3108182352941	295.3381717647059	394.0870311764706	191.1278564705883	733.2165505882352	441.1551758823529	-116.4987452941177	792.379854117647	406.2178676470588	-64.66259411764705	724.3204552941176	395.7684947058823	-124.8139094117647	91.91478647058818	133.540425882353	95.68652235294118	232.5498735294117	95.89816529411766	70.52840176470589	213.2945505882352	79.0497811764706	177.5571341176471	351.8127417647058	43.23173294117647	117.4583317647059	755.8347258823528	67.90981941176472	-36.74769941176471	915.2803529411765	105.2138694117647	-9.464996470588229	904.7643552941176	96.09013999999998	-105.7715576470588	1030.287487647059	114.3667970588235	-35.50357999999999	633.6728711764706	1349.493457647059	17.47830176470586	540.9974541176471	1445.350145882353	226.3069329411765	563.5858229411765	1460.048962352941	-191.468765882353	569.3612911764706	1246.734853529412	278.3283876470588	548.0093317647058	1223.03911117647	-222.3458276470588	544.2919405882353	1141.299838235294	316.2776647058823	484.3402829411765	1135.600842941177	-257.11276	740.3881435294118	960.4264135294118	277.0298394117647	716.1689535294117	935.6023164705882	333.7443435294118	580.8922847058824	902.4554476470588	-215.6240423529412	532.9840635294117	894.0376952941176	-273.0159694117647	284.2954811764705	34.45400882352941	198.5101582352941	304.0504935294117	37.75617999999999	86.35841764705883	970.3011594117646	88.44906411764701	-113.6842429411765	982.913324117647	98.59385941176465	-11.39917235294117	705.8470264705883	1573.228786470588	101.6014411764706	717.1737547058824	1575.855545882353	-36.9027111764706	716.3697270588235	1749.369250588235	40.18413529411762	
